<svg width="13" height="13" viewBox="0 0 13 13" fill="none" xmlns="http://www.w3.org/2000/svg">
<path d="M12.9985 12.9999H13.001V8.23145C13.001 5.89802 12.4983 4.10287 9.77127 4.10287C8.46109 4.10287 7.58003 4.82144 7.22201 5.50446H7.18393V4.32124H4.59912V12.9999H7.29057V8.70119C7.29057 7.56875 7.50385 6.4744 8.90544 6.4744C10.2867 6.4744 10.307 7.7668 10.307 8.77228V12.9999H12.9985Z" fill="white"/>
<path d="M0.212891 4.32142H2.90942V13.0001H0.212891V4.32142Z" fill="white"/>
<path d="M1.56155 0C0.698254 0 0 0.698254 0 1.56155C0 2.42485 0.698254 3.13834 1.56155 3.13834C2.42485 3.13834 3.1231 2.42231 3.1231 1.56155C3.12056 0.698254 2.42231 0 1.56155 0Z" fill="white"/>
</svg>
