<svg width="82" height="53" viewBox="0 0 82 53" fill="none" xmlns="http://www.w3.org/2000/svg">
<g filter="url(#filter0_d_363_832)">
<path d="M71.295 0H14.4071C13.254 0 12.229 0.89688 12.229 2.17814V4.74065V13.8376V41.6409H73.4731V13.7095V4.61253V2.05001C73.4731 0.89688 72.4481 0 71.295 0Z" fill="#571D00"/>
<path d="M76.5732 41.5128H9.00098C8.44869 41.5128 8.00098 41.9605 8.00098 42.5128V43.9722C8.00098 44.5244 8.44869 44.9722 9.00098 44.9722H76.5732C77.1255 44.9722 77.5732 44.5244 77.5732 43.9722V42.5128C77.5732 41.9605 77.1255 41.5128 76.5732 41.5128Z" fill="#571D00"/>
<path d="M70.001 2.97217H16.001C15.4487 2.97217 15.001 3.41988 15.001 3.97217V37.9722C15.001 38.5245 15.4487 38.9722 16.001 38.9722H70.001C70.5533 38.9722 71.001 38.5245 71.001 37.9722V3.97217C71.001 3.41988 70.5533 2.97217 70.001 2.97217Z" fill="#FFD300"/>
<path d="M57.3292 17.5533H26.9634V25.6252H57.3292V17.5533Z" fill="#E30613"/>
<path d="M49.1294 21.0126L61.6857 26.2658L57.8419 28.0595L61.6857 31.3908L59.3795 33.6971L55.6638 29.8533L54.1263 33.6971L49.1294 21.0126Z" fill="white" stroke="#571D00" stroke-width="0.5" stroke-miterlimit="10"/>
<path d="M21.6503 5.97217H4.00098V33.9722H21.6503V5.97217Z" fill="white"/>
<path d="M6.12451 9.02431H15.5463" stroke="#571D00" stroke-width="0.5" stroke-miterlimit="10"/>
<path d="M6.12402 11.9437H15.5458" stroke="#571D00" stroke-width="0.5" stroke-miterlimit="10"/>
<path d="M6.12402 14.7305H13.8207" stroke="#571D00" stroke-width="0.5" stroke-miterlimit="10"/>
<path d="M6.12402 17.6499H15.5458" stroke="#571D00" stroke-width="0.5" stroke-miterlimit="10"/>
<path d="M6.12402 20.5693H11.4321" stroke="#571D00" stroke-width="0.5" stroke-miterlimit="10"/>
<path d="M6.12402 23.4888H15.5458" stroke="#571D00" stroke-width="0.5" stroke-miterlimit="10"/>
<path d="M6.12402 26.4082H13.8207" stroke="#571D00" stroke-width="0.5" stroke-miterlimit="10"/>
<path d="M6.12402 31.0528H9.17616" stroke="#571D00" stroke-width="0.5" stroke-miterlimit="10"/>
<path d="M17.271 9.02432H19.5269" stroke="#571D00" stroke-width="0.5" stroke-miterlimit="10"/>
<path d="M17.271 11.9437H19.5269" stroke="#571D00" stroke-width="0.5" stroke-miterlimit="10"/>
<path d="M17.271 14.7305H19.5269" stroke="#571D00" stroke-width="0.5" stroke-miterlimit="10"/>
<path d="M17.271 17.6499H19.5269" stroke="#571D00" stroke-width="0.5" stroke-miterlimit="10"/>
<path d="M17.271 20.5693H19.5269" stroke="#571D00" stroke-width="0.5" stroke-miterlimit="10"/>
<path d="M17.271 23.4888H19.5269" stroke="#571D00" stroke-width="0.5" stroke-miterlimit="10"/>
<path d="M17.271 26.4082H19.5269" stroke="#571D00" stroke-width="0.5" stroke-miterlimit="10"/>
<path d="M17.271 31.0528H19.5269" stroke="#571D00" stroke-width="0.5" stroke-miterlimit="10"/>
</g>
<defs>
<filter id="filter0_d_363_832" x="0.000976562" y="0" width="81.5723" height="52.9722" filterUnits="userSpaceOnUse" color-interpolation-filters="sRGB">
<feFlood flood-opacity="0" result="BackgroundImageFix"/>
<feColorMatrix in="SourceAlpha" type="matrix" values="0 0 0 0 0 0 0 0 0 0 0 0 0 0 0 0 0 0 127 0" result="hardAlpha"/>
<feOffset dy="4"/>
<feGaussianBlur stdDeviation="2"/>
<feComposite in2="hardAlpha" operator="out"/>
<feColorMatrix type="matrix" values="0 0 0 0 0 0 0 0 0 0 0 0 0 0 0 0 0 0 0.25 0"/>
<feBlend mode="normal" in2="BackgroundImageFix" result="effect1_dropShadow_363_832"/>
<feBlend mode="normal" in="SourceGraphic" in2="effect1_dropShadow_363_832" result="shape"/>
</filter>
</defs>
</svg>
